<svg width="180" height="88" viewBox="0 0 180 88" fill="none" xmlns="http://www.w3.org/2000/svg">
<path d="M170.673 17.2538L32.6805 34.2762L37.253 72.6862L175.246 55.6637L170.673 17.2538Z" fill="#84ECA0"/>
<path d="M145.283 51.106C147.177 51.4317 149.201 51.4773 151.652 51.2511C154.732 50.9661 158.007 50.5248 161.097 49.2377C161.748 48.9668 162.351 48.6568 162.89 48.3158C163.952 47.6451 164.809 46.8294 165.438 45.8908C166.1 44.9036 166.532 43.7446 166.723 42.4467C167.282 38.6454 166.797 34.926 165.279 31.3935C164.469 29.5083 163.305 28.2107 161.718 27.4254C159.953 26.5517 157.967 26.2585 155.648 26.5245C150.835 27.0786 145.943 27.6844 141.213 28.27C139.431 28.4901 137.65 28.7103 135.868 28.9288C135.862 28.9282 135.857 28.9309 135.851 28.9352C135.848 28.9381 135.829 28.9507 135.831 28.9769L135.858 29.1956C135.986 30.2706 136.112 31.3455 136.239 32.4204C136.561 35.1666 136.896 38.0067 137.252 40.7938C137.407 42.0015 137.637 43.1781 137.937 44.294C138.456 46.2168 139.328 47.7613 140.531 48.886C141.751 50.027 143.349 50.7728 145.284 51.1061L145.283 51.106ZM149.773 40.5483C149.526 39.8682 149.423 39.1707 149.323 38.4947C149.302 38.3464 149.28 38.1981 149.256 38.051L149.251 38.018C149.18 37.5626 149.387 37.1087 149.774 36.8621C149.912 36.7744 150.064 36.7189 150.227 36.6971L150.498 36.659C151.121 36.572 151.709 36.4908 152.313 36.4586C153.495 36.3961 154.236 36.9902 154.457 38.1789C154.553 38.6971 154.568 39.2456 154.5 39.7677C154.428 40.3201 154.148 40.7646 153.688 41.054C153.496 41.1765 153.274 41.2668 153.03 41.324C152.278 41.4999 151.249 41.7406 150.253 41.1312C150.028 40.9939 149.857 40.786 149.77 40.5463L149.773 40.5483Z" fill="#1A2533"/>
<path d="M99.1672 34.4048C97.5151 33.9731 95.7125 33.8875 93.6559 34.1388C89.1453 34.6906 84.5608 35.2573 80.1277 35.8059C78.3981 36.0202 76.6671 36.2327 74.9375 36.4469C74.9066 36.4502 74.878 36.4618 74.8523 36.477C74.799 36.5103 74.743 36.584 74.7534 36.6841L74.7617 36.758C74.8873 37.8117 75.0124 38.8848 75.1333 39.9217C75.4363 42.5133 75.7495 45.1921 76.0922 47.8203C76.2825 49.2817 76.5495 50.6571 76.8858 51.9082C77.3837 53.7623 78.2228 55.261 79.3799 56.3647C80.5531 57.483 82.0914 58.2323 83.9538 58.5903C85.8728 58.9592 87.9864 59.0223 90.6072 58.7865C92.5545 58.6113 94.0415 58.4121 95.4302 58.1377C97.1456 57.7985 98.6555 57.3502 100.046 56.7675C100.685 56.4987 101.28 56.1927 101.81 55.8573C102.886 55.1782 103.751 54.3504 104.383 53.3975C105.048 52.3944 105.476 51.2171 105.655 49.8984C106.232 45.6446 105.619 41.7056 103.834 38.1888C102.838 36.2272 101.27 34.9553 99.1686 34.4066L99.1672 34.4048ZM93.4002 45.7016C93.5236 46.3476 93.5394 46.9466 93.4476 47.484C93.4105 47.6992 93.3148 47.9067 93.1723 48.0848C93.0208 48.2718 92.8381 48.4344 92.6299 48.5651C92.1376 48.8753 91.5775 48.9739 91.0943 49.0287C89.5569 49.2031 88.6701 48.5564 88.3847 47.0509C88.3006 46.6119 88.2555 46.1851 88.203 45.6748C88.1518 45.1678 88.3859 44.6844 88.8145 44.4145C88.9711 44.3157 89.1449 44.2528 89.3293 44.2268L89.4549 44.2091C90.106 44.1169 90.7195 44.0304 91.3557 44.0031C92.3922 43.9595 93.1948 44.6282 93.4013 45.7066L93.4002 45.7016Z" fill="#1A2533"/>
<path d="M128.317 30.6788C126.789 30.2487 125.115 30.1636 123.047 30.4138C118.934 30.9116 114.752 31.4297 110.708 31.9315C109.426 32.0906 108.145 32.2497 106.863 32.4072C106.858 32.4066 106.855 32.4095 106.851 32.4108C106.848 32.4121 106.836 32.4221 106.837 32.4401L108.194 43.8429C108.194 43.8429 108.196 43.8561 108.205 43.8635C108.215 43.8711 108.224 43.8704 108.227 43.8691L118.047 42.658C118.047 42.658 118.055 42.6556 118.059 42.6543C118.062 42.653 118.074 42.643 118.073 42.625L117.948 41.5681C117.896 41.1309 118.102 40.698 118.472 40.4642C118.61 40.3781 118.762 40.3226 118.923 40.3007C119.336 40.245 119.727 40.1936 120.129 40.1612C121.455 40.0554 122.438 40.8389 122.631 42.1577C122.782 43.1946 122.446 44.0292 121.683 44.5107C121.438 44.6652 121.15 44.7826 120.825 44.8604C120.541 44.928 120.251 44.9673 120.003 44.9981C116.972 45.3742 113.942 45.7472 110.911 46.1217L108.662 46.3999L108.523 46.4162C108.523 46.4162 108.515 46.4186 108.512 46.4199C108.508 46.4211 108.496 46.4312 108.497 46.4492L109.639 56.0341C109.639 56.0341 109.641 56.0472 109.65 56.0547C109.66 56.0623 109.668 56.0615 109.672 56.0602L109.851 56.0385C111.165 55.8763 112.478 55.714 113.792 55.5534C117.436 55.1054 121.206 54.6413 124.912 54.1754C125.888 54.0524 126.922 53.9143 127.906 53.6817C129.249 53.3651 130.353 52.926 131.279 52.3416C133.161 51.1548 134.254 49.3641 134.622 46.869C135.263 42.5326 134.695 38.41 132.933 34.6148C132.002 32.6064 130.448 31.2841 128.317 30.6836L128.317 30.6788Z" fill="#1A2533"/>
<path d="M60.9943 51.8352C61.3186 54.5151 61.645 57.252 61.9598 59.9001L62.1918 61.8528C62.1918 61.8528 62.1911 61.8592 62.1972 61.8631C62.2016 61.8668 62.2049 61.8655 62.2065 61.8657L75.0331 60.2823C74.8989 59.158 74.7661 58.0207 74.6376 56.9181C74.2739 53.8023 73.8972 50.5812 73.4653 47.4257C73.2786 46.067 72.9132 44.6034 72.3794 43.0751C71.3092 40.0132 69.2524 38.3086 66.2669 38.0078C64.7352 37.8533 63.1008 37.8649 61.4072 38.0424C58.4086 38.3554 55.3651 38.7432 52.4212 39.1172C51.2857 39.2608 50.1127 39.4102 48.9564 39.5533C48.9548 39.5531 48.9532 39.5529 48.9514 39.5544C48.9498 39.5542 48.9444 39.5601 48.9451 39.5683L50.0908 49.1925C50.0908 49.1925 50.0902 49.1974 50.0963 49.2012C50.1007 49.205 50.1041 49.2037 50.1072 49.204L50.3336 49.1759C50.8972 49.1053 51.4299 49.0379 51.9701 48.9762C52.4958 48.9145 53.0297 48.8505 53.5475 48.7881C54.9312 48.6219 56.3623 48.4493 57.7772 48.3237C59.3218 48.1873 60.2842 48.8647 60.7209 50.3991C60.8407 50.8191 60.9278 51.2747 60.9961 51.8337L60.9943 51.8352Z" fill="#1A2533"/>
<path d="M43.6311 40.9739C38.6951 32.0842 25.9 29.8661 15.0508 36.0205C4.20153 42.1748 -0.592565 54.3709 4.34185 63.2603C9.27786 72.15 22.073 74.3681 32.9222 68.2137C43.7714 62.0594 48.5655 49.8633 43.6311 40.9739ZM35.0979 55.374C34.6739 56.839 33.1546 57.6825 31.7044 57.2574L28.4717 56.3105C27.0215 55.8854 25.5022 56.7288 25.0782 58.1939L24.1338 61.4595C23.7098 62.9245 22.1905 63.7679 20.7403 63.3428C19.29 62.9177 18.4577 61.3856 18.8817 59.9206L19.8261 56.6549C20.2501 55.1899 19.4178 53.6578 17.9675 53.2327L14.7348 52.2858C13.2846 51.8607 12.4523 50.3286 12.8763 48.8636C13.3003 47.3985 14.8196 46.5551 16.2698 46.9802L19.5025 47.9271C20.9527 48.3522 22.472 47.5087 22.896 46.0437L23.8404 42.7781C24.2645 41.3131 25.7837 40.4696 27.234 40.8947C28.6842 41.3199 29.5166 42.852 29.0925 44.317L28.1481 47.5826C27.7241 49.0476 28.5564 50.5798 30.0067 51.0049L33.2394 51.9518C34.6896 52.3769 35.522 53.909 35.0979 55.374Z" fill="#C95FF4"/>
</svg>
